{"title":"12 Monkeys S02E04 Emergence 1080P WEB-DL DD5 1 H 264","uid":14590791,"size":1761901222,"categoryP":"video","categoryS":"hd___tv_shows","magnet":"?xt=urn:btih:42d9aec7ade41dc702732bc3ce82fcb4c439a899&amp;dn=12+Monkeys+S02E04+Emergence+1080P+WEB-DL+DD5+1+H+264&amp;tr=udp%3A%2F%2Ftracker.leechers-paradise.org%3A6969&amp;tr=udp%3A%2F%2Fzer0day.ch%3A1337&amp;tr=udp%3A%2F%2Fopen.demonii.com%3A1337&amp;tr=udp%3A%2F%2Ftracker.coppersurfer.tk%3A6969&amp;tr=udp%3A%2F%2Fexodus.desync.com%3A6969","seeders":1,"leechers":0,"uploader":"jmanwf","files":1,"time":1462969215,"description":"Description\r\nWhen Cole (Aaron Stanford) and Cassie (Amanda Schull) are stranded in 1944, Jones must turn to the person she trusts the least to bring them home - Ramse (Kirk Acevedo). For Ramse, this mission will give him a chance to atone for his sins -- but can he mend the broken relations between Cole and Cassie? Meanwhile, Jones (Barbara Sukowa) visits old Jennifer Goines (Emily Hampshire) to explore the true nature of Time - and the Twelve's method to destroy it.\r\n\r\n\r\nVideo\r\nID : 1\r\nFormat : AVC\r\nFormat/Info : Advanced Video Codec\r\nFormat profile :   \r\nFormat settings, CABAC : Yes\r\nFormat settings, ReFrames : 4 frames\r\nCodec ID : V_MPEG4/ISO/AVC\r\nDuration : 42mn 53s\r\nBit rate : 4 984 Kbps\r\nWidth : 1 920 pixels\r\nHeight : 1 080 pixels\r\nDisplay aspect ratio : 16:9\r\nFrame rate mode : Constant\r\nFrame rate : 23.976 (24000/1001) fps\r\nColor space : YUV\r\nChroma subsampling : 4:2:0\r\nBit depth : 8 bits\r\nScan type : Progressive\r\nBits/(Pixel*Frame) : 0.100\r\nStream size : 1.49 GiB (91%)\r\nTitle :\r\nLanguage : English\r\nDefault : Yes\r\nForced : No\r\nColor range : Limited\r\nColor primaries : BT.709\r\nTransfer characteristics : BT.709\r\nMatrix coefficients : BT.709\r\n\r\nAudio\r\nID : 2\r\nFormat : AC-3\r\nFormat/Info : Audio Coding 3\r\nMode extension : CM (complete main)\r\nFormat settings, Endianness : Big\r\nCodec ID : A_AC3\r\nDuration : 42mn 53s\r\nBit rate mode : Constant\r\nBit rate : 384 Kbps\r\nChannel(s) : 6 channels\r\nChannel positions : Front: L C R, Side: L R, LFE\r\nSampling rate : 48.0 KHz\r\nFrame rate : 31.250 fps (1536 spf)\r\nCompression mode : Lossy\r\nStream size : 118 MiB (7%)\r\nTitle :\r\nLanguage : English\r\nDefault : Yes\r\nForced : No","torrent":{"xt":"urn:btih:42d9aec7ade41dc702732bc3ce82fcb4c439a899","amp;dn":"12+Monkeys+S02E04+Emergence+1080P+WEB-DL+DD5+1+H+264","amp;tr":["udp%3A%2F%2Ftracker.leechers-paradise.org%3A6969","udp%3A%2F%2Fzer0day.ch%3A1337","udp%3A%2F%2Fopen.demonii.com%3A1337","udp%3A%2F%2Ftracker.coppersurfer.tk%3A6969","udp%3A%2F%2Fexodus.desync.com%3A6969"],"infoHash":"42d9aec7ade41dc702732bc3ce82fcb4c439a899","infoHashBuffer":{"type":"Buffer","data":[66,217,174,199,173,228,29,199,2,115,43,195,206,130,252,180,196,57,168,153]},"announce":[],"urlList":[]}}